<?xml version="1.0" encoding="UTF-8" standalone="no"?>
<svg
   style="enable-background:new"
   height="512"
   viewBox="0 0 512.40002 512"
   width="512.4"
   version="1.1"
   id="svg35"
   sodipodi:docname="logo.svg"
   inkscape:version="1.2.2 (b0a8486541, 2022-12-01)"
   xmlns:inkscape="http://www.inkscape.org/namespaces/inkscape"
   xmlns:sodipodi="http://sodipodi.sourceforge.net/DTD/sodipodi-0.dtd"
   xmlns="http://www.w3.org/2000/svg"
   xmlns:svg="http://www.w3.org/2000/svg">
  <sodipodi:namedview
     id="namedview37"
     pagecolor="#505050"
     bordercolor="#eeeeee"
     borderopacity="1"
     inkscape:showpageshadow="0"
     inkscape:pageopacity="0"
     inkscape:pagecheckerboard="0"
     inkscape:deskcolor="#505050"
     showgrid="false"
     inkscape:zoom="1.2029102"
     inkscape:cx="278.07563"
     inkscape:cy="283.89485"
     inkscape:window-width="1920"
     inkscape:window-height="1008"
     inkscape:window-x="0"
     inkscape:window-y="0"
     inkscape:window-maximized="1"
     inkscape:current-layer="svg35" />
  <defs
     id="defs7">
    <linearGradient
       id="a"
       y2="494"
       gradientUnits="userSpaceOnUse"
       x2="256"
       gradientTransform="matrix(1 0 0 1.076 0 -19.36)"
       y1="18"
       x1="256">
      <stop
         style="stop-color:#eaeaea"
         offset="0"
         id="stop2" />
      <stop
         style="stop-color:#f4f4f4"
         offset="1"
         id="stop4" />
    </linearGradient>
  </defs>
  <rect
     style="color:#000000;display:inline;fill:#ffcc00;enable-background:accumulate"
     height="512"
     width="512"
     y="0"
     x="0"
     id="rect9" />
  <path
     style="display:inline;opacity:0.26;fill:#ffffff;fill-opacity:1"
     d="m 256,112 c -79.5,0 -144,64.5 -144,144 0,79.5 64.5,144 144,144 79.5,0 144,-64.5 144,-144 0,-79.5 -64.5,-144 -144,-144 z m 49.47,39.98 c 3.098,0.0797 6.222,0.9104 9.096,2.568 9.197,5.312 12.34,17.07 7.029,26.26 -5.305,9.196 -17.06,12.34 -26.25,7.029 -9.19,-5.305 -12.34,-17.06 -7.039,-26.25 3.653,-6.322 10.35,-9.787 17.17,-9.611 z m -49.48,20.5 c 7.731,0 15.21,1.074 22.31,3.035 1.253,7.726 5.837,14.84 13.15,19.06 7.298,4.207 15.74,4.629 23.05,1.867 14.22,13.98 23.47,32.99 24.81,54.17 l -27.39,0.4043 c -2.5,-28.7 -26.6,-51.2 -55.9,-51.2 -8.451,0 -16.47,1.88 -23.65,5.225 l -13.4,-23.9 c 11.16,-5.522 23.72,-8.645 37.01,-8.645 z m -46.33,14.03 14.06,23.54 C 209.28,220.21 199.84,237 199.84,256 c 0,19 9.437,35.78 23.88,45.94 l -14.06,23.55 c -16.83,-11.24 -29.34,-28.43 -34.54,-48.55 6.069,-4.952 9.953,-12.49 9.953,-20.94 0,-8.451 -3.884,-15.99 -9.953,-20.94 5.201,-20.12 17.72,-37.3 34.54,-48.55 z m -51.58,50.26 c 10.62,0 19.22,8.608 19.22,19.23 0,10.622 -8.605,19.22 -19.22,19.22 -10.615,0 -19.23,-8.605 -19.23,-19.22 0,-10.615 8.607,-19.23 19.23,-19.23 z m 153.8,24.21 27.4,0.4023 c -1.348,21.18 -10.6,40.19 -24.81,54.17 -7.31,-2.762 -15.75,-2.347 -23.05,1.867 -7.309,4.227 -11.89,11.34 -13.15,19.06 -7.104,1.967 -14.58,3.041 -22.31,3.041 -13.29,0 -25.86,-3.124 -37.01,-8.652 l 13.36,-23.94 c 7.186,3.344 15.2,5.225 23.65,5.225 29.34,0 53.41,-22.49 55.93,-51.18 z m -7.482,60.6 c 6.816,-0.1758 13.51,3.289 17.16,9.607 5.311,9.197 2.16,20.95 -7.035,26.25 -9.196,5.311 -20.95,2.159 -26.25,-7.037 -5.312,-9.191 -2.159,-20.94 7.037,-26.25 2.872,-1.658 5.994,-2.49 9.092,-2.57 z"
     id="path11"
     sodipodi:insensitive="true" />
  <g
     transform="translate(0,18)"
     id="g17"
     style="display:inline;fill:#d40000;enable-background:new">
    <path
       style="color:#000000;display:inline;opacity:0.3;fill:#d40000;enable-background:accumulate"
       d="M 256,256 108.2,512 H 512 V 256 H 389.3 Z"
       transform="translate(0,-18)"
       id="path13" />
    <path
       style="color:#000000;display:inline;opacity:0.15;fill:#d40000;enable-background:accumulate"
       d="M 0,0 V 512 H 108.2 L 184.6,379.7 256,256 187.1,136 186.9,136.3 108.2,0 Z"
       transform="translate(0,-18)"
       id="path15" />
  </g>
  <g
     style="display:none"
     transform="translate(0,-558.4)"
     id="g33"
     sodipodi:insensitive="true">
    <path
       d="M 166.1,576.4 H 346 c 145.3,0 166.1,20.74 166.1,165.9 v 144.2 c 0,145.2 -20.76,165.9 -166.1,165.9 H 166.1 C 20.8,1052.4 0,1032.4 0,886.9 V 742.7 C 0,597.5 20.76,576.8 166.1,576.8 Z"
       style="display:inline;fill:#0000ff;fill-opacity:0.08118;stroke:#0000ff"
       id="path23" />
    <circle
       style="color:#000000;display:inline;fill:#0000ff;fill-opacity:0.08118;stroke:#0000ff;stroke-width:0.8333;enable-background:accumulate"
       cx="256"
       transform="matrix(1.2,0,0,1.2,-51.2,528.8)"
       cy="238"
       r="120"
       id="circle25" />
    <rect
       style="color:#000000;display:none;fill:#0000ff;fill-opacity:0.08118;stroke:#0000ff;stroke-linecap:round;stroke-linejoin:round;enable-background:accumulate"
       height="272"
       width="272"
       y="678.40002"
       x="120"
       id="rect27" />
    <rect
       style="color:#000000;display:none;fill:#0000ff;fill-opacity:0.08118;stroke:#0000ff;stroke-linecap:round;stroke-linejoin:round;enable-background:accumulate"
       height="240"
       width="304"
       y="694.40002"
       x="104"
       id="rect29" />
    <rect
       style="color:#000000;display:none;fill:#0000ff;fill-opacity:0.08118;stroke:#0000ff;stroke-linecap:round;stroke-linejoin:round;enable-background:accumulate"
       height="304"
       width="240"
       y="662.40002"
       x="136"
       id="rect31" />
  </g>
  <ellipse
     style="display:none;fill:#1a1a1a"
     id="path1225"
     ry="144.6492"
     rx="145.06487"
     cy="256.46136"
     cx="256.04572" />
  <rect
     style="display:inline;fill:#ff0000;stroke-width:1.17253"
     id="rect1435"
     width="12.469752"
     height="149.14909"
     x="253.34393"
     y="111.36497" />
  <rect
     style="display:inline;fill:#000080;stroke-width:1.03183;enable-background:new"
     id="rect1435-7"
     width="10.707566"
     height="134.51138"
     x="355.24969"
     y="-70.972847"
     transform="matrix(0.81622312,0.57773681,-0.6272342,0.7788307,0,0)"
     ry="0.20211281"
     inkscape:transform-center-x="-40.023806"
     inkscape:transform-center-y="-46.042762" />
  <rect
     style="display:inline;fill:#008000;stroke-width:0.975762;enable-background:new"
     id="rect1435-7-5"
     width="12.469719"
     height="103.29185"
     x="245.80545"
     y="-358.57346"
     transform="matrix(-0.00724596,0.99997375,-0.99996805,-0.00799316,0,0)" />
  <path
     style="fill:#000000"
     id="path1662"
     sodipodi:type="arc"
     sodipodi:cx="258.95532"
     sodipodi:cy="254.17525"
     sodipodi:rx="10.807124"
     sodipodi:ry="10.599296"
     sodipodi:start="0"
     sodipodi:end="6.0194693"
     sodipodi:open="true"
     sodipodi:arc-type="arc"
     d="m 269.76245,254.17525 a 10.807124,10.599296 0 0 1 -10.09514,10.57627 10.807124,10.599296 0 0 1 -11.4253,-9.18272 10.807124,10.599296 0 0 1 8.58971,-11.7862 10.807124,10.599296 0 0 1 12.5571,7.62973" />
</svg>
